<?xml version="1.0" encoding="utf-8"?>
<!-- Generator: Adobe Illustrator 17.0.0, SVG Export Plug-In . SVG Version: 6.00 Build 0)  -->
<!DOCTYPE svg PUBLIC "-//W3C//DTD SVG 1.1//EN" "http://www.w3.org/Graphics/SVG/1.1/DTD/svg11.dtd">
<svg version="1.1" id="Layer_1" xmlns="http://www.w3.org/2000/svg" xmlns:xlink="http://www.w3.org/1999/xlink" x="0px" y="0px"
	 width="488.3px" height="71.6px" viewBox="0 0 488.3 71.6" style="enable-background:new 0 0 488.3 71.6;" xml:space="preserve">
<style type="text/css">
	.st0{fill:#FFDB00;}
	.st1{fill:#FFFFFF;}
</style>
<path class="st0" d="M432.3,10.8l-20,50h65.9v-50H432.3z"/>
<polygon points="458,52.7 451.2,52.7 451.2,29.3 445,34.8 441.3,30.5 452.1,20.5 458,20.5 "/>
<path class="st1" d="M13.8,48c3.9,2,8.8,3.9,14.2,3.9c6-0.1,9.7-1.9,9.7-5.5c0-2.7-1.5-4.3-6.6-5.7c-2-0.5-6.1-1.6-8.5-2.3
	C14.4,35.8,10,31.2,10,24.9C10,16.6,16.1,10,29.4,10c7.1,0,14.3,3,17.5,4.6l-3.6,8.4c-3.4-1.7-8.8-3.4-14.2-3.4
	c-6,0-8.4,1.8-8.4,4.7c0,2.7,1.8,3.9,5.4,4.9c2.3,0.6,9.1,2.6,9.1,2.6c9,2.5,13.3,6.7,13.3,13.9c0,9.3-8.6,15.8-20.5,15.8
	c-7.2,0-14.9-3.4-17.5-5.3L13.8,48z"/>
<path class="st1" d="M61.7,10.8h21.4c9.8,0,18.2,5.8,18.2,18.3c0,11.3-8.4,18-18.2,18H72v13.7H61.7V10.8z M72,19.6v18.3h9.4
	c5.1,0,9.1-3.5,9.1-9.1c0-6-4.1-9.2-9.1-9.2H72z"/>
<path class="st1" d="M177.3,10.8H197c12.3,0,20,5,20,16.3c0,8-5.7,13.9-13.3,15.4l15.9,16.7v1.6h-11.4l-16.7-18h-3.8v18h-10.4V10.8z
	 M187.6,19.6v14.9h10.5c4.7,0,8.1-2.8,8.1-7.4c0-4.9-3.4-7.5-8.1-7.5H187.6z"/>
<path class="st1" d="M253.5,19.9v40.9h-10.4V19.9h-14.6v-9.1h39.3v9.1H253.5z"/>
<path class="st1" d="M334,19.9v40.9h-10.4V19.9H309v-9.1h39.3v9.1H334z"/>
<path class="st1" d="M358.6,10.8h11.3l14.6,40.6l15.1-40.6H411l-19.9,50h-13L358.6,10.8z"/>
<circle class="st0" cx="288.6" cy="35.8" r="10.1"/>
<path class="st0" d="M137.9,10c-14.3,0-25.8,11.6-25.8,25.8s11.6,25.8,25.8,25.8c14.3,0,25.8-11.6,25.8-25.8S152.1,10,137.9,10z
	 M137.9,45.9c-5.6,0-10.1-4.5-10.1-10.1c0-5.6,4.5-10.1,10.1-10.1c5.6,0,10.1,4.5,10.1,10.1C148,41.4,143.4,45.9,137.9,45.9z"/>
</svg>
