<?xml version="1.0" encoding="utf-8"?>
<!-- Generator: Adobe Illustrator 25.1.0, SVG Export Plug-In . SVG Version: 6.00 Build 0)  -->
<svg version="1.1" id="Слой_1" xmlns="http://www.w3.org/2000/svg" xmlns:xlink="http://www.w3.org/1999/xlink" x="0px" y="0px"
	 viewBox="0 0 381.4 150" style="enable-background:new 0 0 381.4 150;" xml:space="preserve">
<style type="text/css">
	.st0{fill-rule:evenodd;clip-rule:evenodd;fill:#10253D;}
	.st1{fill-rule:evenodd;clip-rule:evenodd;fill:url(#SVGID_1_);}
	.st2{fill-rule:evenodd;clip-rule:evenodd;fill:url(#SVGID_2_);}
	.st3{fill:#10253D;}
</style>
<g>
	<g>
		<g>
			<g>
				<g>
					<g>
						<path class="st0" d="M165.8,36.7V0H13.6C6.1,0,0,6.1,0,13.6v23.1H165.8z"/>
						<path class="st0" d="M0,112.5V150h153.8c7.5,0,13.6-6.1,13.6-13.6v-23.9C167.4,112.5,0,112.5,0,112.5z"/>
						<path class="st0" d="M0,55.4h163.6v36.5H0V55.4z"/>
					</g>
					
						<linearGradient id="SVGID_1_" gradientUnits="userSpaceOnUse" x1="-1888.2642" y1="-96.9908" x2="-1878.4194" y2="-96.9908" gradientTransform="matrix(5.6579 0 0 -2.0863 10683.6094 -100.1519)">
						<stop  offset="0" style="stop-color:#10253D"/>
						<stop  offset="1" style="stop-color:#FFFFFF;stop-opacity:0"/>
					</linearGradient>
					<path class="st1" d="M0,91.9l55.7,20.6V91.9H0z"/>
					
						<linearGradient id="SVGID_2_" gradientUnits="userSpaceOnUse" x1="-1888.2642" y1="-139.0363" x2="-1878.4194" y2="-139.0363" gradientTransform="matrix(5.6579 0 0 -1.903 10683.6094 -218.486)">
						<stop  offset="0" style="stop-color:#10253D"/>
						<stop  offset="1" style="stop-color:#FFFFFF;stop-opacity:0"/>
					</linearGradient>
					<path class="st2" d="M0,36.7l55.7,18.8V36.7H0z"/>
				</g>
			</g>
		</g>
	</g>
	<path class="st3" d="M297.3,150c-11,0-20.5-0.8-28.5-2.4c-8-1.6-14.8-3.6-20.4-6.2c-5.6-2.5-10.1-5.4-13.7-8.5
		c-3.5-3.2-6.3-6.4-8.2-9.6c-1.9-3.2-3.2-6.3-3.9-9.2c-0.7-2.9-1.1-5.4-1.1-7.5v-2.8h46c0.1,0.8,0.7,2,1.6,3.6
		c0.9,1.6,2.6,3.1,5,4.6c2.4,1.5,5.8,2.8,10.2,3.9c4.4,1.1,10.2,1.6,17.6,1.6c6.8,0,12.5-0.5,17.2-1.5c4.7-1,8.4-2.3,11.1-4
		c2.8-1.7,4.7-3.6,5.9-5.8c1.2-2.2,1.8-4.6,1.8-7.1v-1.2c0-2.7-0.6-5.1-1.7-7.3c-1.1-2.2-3.1-4.1-5.8-5.6c-2.8-1.5-6.5-2.7-11.1-3.6
		c-4.7-0.9-10.5-1.3-17.4-1.3c-7.1,0-12.8,0.4-17.3,1.3c-4.5,0.9-8,1.9-10.5,3.1c-2.5,1.2-4.3,2.5-5.3,3.8c-1,1.3-1.6,2.5-1.7,3.4
		h-43.2V0h146.5v34H267.2v27c0.4-0.4,1.7-1.2,3.7-2.5c2-1.3,4.9-2.5,8.5-3.9c3.6-1.3,8.1-2.5,13.5-3.6c5.4-1.1,11.6-1.6,18.7-1.6
		h2.1c13.7,0,24.9,1.4,33.7,4.1c8.8,2.7,15.7,6.3,20.8,10.6c5.1,4.4,8.6,9.3,10.5,14.8c1.9,5.5,2.9,11,2.9,16.4v2.4
		c0,5.6-1.1,11.4-3.3,17.6c-2.2,6.2-6.1,11.8-11.8,17c-5.7,5.2-13.4,9.4-23.2,12.7c-9.8,3.3-22.3,5-37.4,5H297.3z"/>
</g>
</svg>
