<?xml version="1.0" encoding="utf-8"?>
<!-- Generator: Adobe Illustrator 25.1.0, SVG Export Plug-In . SVG Version: 6.00 Build 0)  -->
<svg version="1.1" id="Слой_1" xmlns="http://www.w3.org/2000/svg" xmlns:xlink="http://www.w3.org/1999/xlink" x="0px" y="0px"
	 viewBox="0 0 391.6 150" style="enable-background:new 0 0 391.6 150;" xml:space="preserve">
<style type="text/css">
	.st0{fill-rule:evenodd;clip-rule:evenodd;fill:#10253D;}
	.st1{fill-rule:evenodd;clip-rule:evenodd;fill:url(#SVGID_1_);}
	.st2{fill-rule:evenodd;clip-rule:evenodd;fill:url(#SVGID_2_);}
	.st3{fill:#10253D;}
</style>
<g>
	<g>
		<g>
			<g>
				<g>
					<g>
						<path class="st0" d="M165.8,36.7V0H13.6C6.1,0,0,6.1,0,13.6v23.1H165.8z"/>
						<path class="st0" d="M0,112.5V150h153.8c7.5,0,13.6-6.1,13.6-13.6v-23.9C167.4,112.5,0,112.5,0,112.5z"/>
						<path class="st0" d="M0,55.4h163.6v36.5H0V55.4z"/>
					</g>
					
						<linearGradient id="SVGID_1_" gradientUnits="userSpaceOnUse" x1="-1888.1183" y1="-99.0797" x2="-1878.2737" y2="-99.0797" gradientTransform="matrix(5.6579 0 0 -2.0863 10682.7842 -104.5101)">
						<stop  offset="0" style="stop-color:#10253D"/>
						<stop  offset="1" style="stop-color:#FFFFFF;stop-opacity:0"/>
					</linearGradient>
					<path class="st1" d="M0,91.9l55.7,20.6V91.9H0z"/>
					
						<linearGradient id="SVGID_2_" gradientUnits="userSpaceOnUse" x1="-1888.1183" y1="-141.1904" x2="-1878.2737" y2="-141.1904" gradientTransform="matrix(5.6579 0 0 -1.903 10682.7842 -222.5853)">
						<stop  offset="0" style="stop-color:#10253D"/>
						<stop  offset="1" style="stop-color:#FFFFFF;stop-opacity:0"/>
					</linearGradient>
					<path class="st2" d="M0,36.7l55.7,18.8V36.7H0z"/>
				</g>
			</g>
		</g>
	</g>
	<path class="st3" d="M303.6,150c-11.9,0-22.2-1.1-30.9-3.4c-8.7-2.3-16.1-5.4-22.2-9.2c-6.1-3.9-11-8.3-14.8-13.3
		c-3.7-5-6.7-10.1-8.7-15.4c-2.1-5.3-3.5-10.5-4.3-15.7c-0.8-5.2-1.1-10-1.1-14.4V74c0-3.9,0.4-8.5,1.1-13.6
		c0.8-5.2,2.2-10.5,4.4-16c2.1-5.5,5.1-10.9,8.9-16.2c3.8-5.3,8.8-10,14.9-14.2C257,9.8,264.4,6.4,273,3.8
		c8.6-2.6,18.8-3.8,30.6-3.8h6.2c16.1,0,29.2,1.4,39.2,4.3c10.1,2.9,17.9,6.5,23.5,10.9c5.6,4.4,9.4,9.2,11.4,14.3
		c2,5.2,3,10,3,14.6v0.2h-45c-0.4-0.9-1.1-2.1-2-3.6c-0.9-1.5-2.6-2.9-5-4.3c-2.4-1.4-5.8-2.6-10.2-3.6c-4.4-1-10.2-1.6-17.4-1.6
		c-9.6,0-17.1,1.4-22.7,4.1c-5.6,2.7-9.8,6.1-12.7,9.9c-2.9,3.9-4.8,7.9-5.6,12.2c-0.8,4.3-1.2,7.9-1.2,10.9v1.4
		c1-0.8,2.6-2,4.9-3.5c2.3-1.6,5.5-3.1,9.7-4.7c4.2-1.6,9.4-2.9,15.7-4.1c6.3-1.2,14-1.8,23-1.8h4.6c12.6,0,23.3,1.1,32,3.3
		c8.7,2.2,15.8,5.3,21.2,9.1c5.4,3.9,9.3,8.3,11.7,13.4c2.4,5,3.5,10.3,3.5,15.8v3.3c0,3.1-0.4,6.6-1.1,10.3
		c-0.8,3.7-2.2,7.4-4.3,11.1c-2.1,3.7-5,7.2-8.6,10.6c-3.7,3.4-8.4,6.4-14.2,8.9c-5.8,2.6-12.7,4.6-20.8,6.2
		c-8.1,1.6-17.7,2.4-28.8,2.4H303.6z M271.1,101.5c0,1.8,0.5,3.8,1.5,5.8c1,2,2.8,3.9,5.6,5.6c2.8,1.7,6.6,3.1,11.6,4.3
		c4.9,1.2,11.3,1.8,19.3,1.8c8.6,0,15.4-0.6,20.5-1.8c5.1-1.2,9-2.7,11.7-4.4c2.7-1.8,4.4-3.7,5.2-5.7c0.8-2,1.1-3.8,1.1-5.4v-1.2
		c0-1.7-0.5-3.5-1.4-5.5c-0.9-2-2.7-3.8-5.4-5.4c-2.7-1.6-6.6-3-11.7-4c-5.1-1-11.8-1.6-20.1-1.6c-8,0-14.5,0.5-19.5,1.6
		c-4.9,1-8.7,2.4-11.4,4c-2.7,1.6-4.5,3.4-5.5,5.4c-1,2-1.5,3.8-1.5,5.5V101.5z"/>
</g>
</svg>
