<?xml version="1.0" encoding="utf-8"?>
<!-- Generator: Adobe Illustrator 25.1.0, SVG Export Plug-In . SVG Version: 6.00 Build 0)  -->
<svg version="1.1" id="Слой_1" xmlns="http://www.w3.org/2000/svg" xmlns:xlink="http://www.w3.org/1999/xlink" x="0px" y="0px"
	 viewBox="0 0 385.8 150" style="enable-background:new 0 0 385.8 150;" xml:space="preserve">
<style type="text/css">
	.st0{fill-rule:evenodd;clip-rule:evenodd;fill:#10253D;}
	.st1{fill-rule:evenodd;clip-rule:evenodd;fill:url(#SVGID_1_);}
	.st2{fill-rule:evenodd;clip-rule:evenodd;fill:url(#SVGID_2_);}
	.st3{fill:#10253D;}
</style>
<g>
	<g>
		<g>
			<g>
				<path class="st0" d="M165.8,36.7V0H13.6C6.1,0,0,6.1,0,13.6v23.1H165.8z"/>
				<path class="st0" d="M0,112.5V150h153.8c7.5,0,13.6-6.1,13.6-13.6v-23.9H0z"/>
				<path class="st0" d="M0,55.4h163.6v36.5H0V55.4z"/>
			</g>
			
				<linearGradient id="SVGID_1_" gradientUnits="userSpaceOnUse" x1="-631.1562" y1="347.554" x2="-621.3068" y2="347.554" gradientTransform="matrix(5.6579 0 0 -2.0863 3571.0078 827.3011)">
				<stop  offset="0" style="stop-color:#10253D"/>
				<stop  offset="1" style="stop-color:#FFFFFF;stop-opacity:0"/>
			</linearGradient>
			<path class="st1" d="M0,91.9l55.7,20.6V91.9H0z"/>
			
				<linearGradient id="SVGID_2_" gradientUnits="userSpaceOnUse" x1="-631.1562" y1="348.3603" x2="-621.3068" y2="348.3603" gradientTransform="matrix(5.6579 0 0 -1.903 3571.0078 708.9995)">
				<stop  offset="0" style="stop-color:#10253D"/>
				<stop  offset="1" style="stop-color:#FFFFFF;stop-opacity:0"/>
			</linearGradient>
			<path class="st2" d="M0,36.7l55.7,18.8V36.7H0z"/>
		</g>
	</g>
	<path class="st3" d="M297.6,150c-10.8,0-20.3-0.9-28.3-2.7c-8-1.8-14.9-4.1-20.5-7c-5.6-2.9-10.2-6.1-13.7-9.7
		c-3.5-3.6-6.3-7.3-8.3-11c-2-3.7-3.4-7.3-4.1-10.7c-0.7-3.4-1-6.4-1-9v-1.8h45.8c0.1,1.1,0.5,2.7,1.2,4.8c0.7,2.1,2.2,4.3,4.5,6.5
		c2.3,2.2,5.8,4.1,10.4,5.8c4.6,1.7,11.1,2.5,19.5,2.5c8.3,0,14.9-0.6,19.9-1.7c4.9-1.1,8.7-2.5,11.2-4.2c2.6-1.7,4.3-3.6,5.1-5.7
		c0.8-2.1,1.3-4.1,1.3-5.9c0-3.8-1.5-6.9-4.5-9.2c-3-2.4-8.4-3.5-16.3-3.5h-49.5v-30h49.3c3.7,0,6.9-0.3,9.4-1
		c2.5-0.7,4.4-1.5,5.8-2.7c1.4-1.1,2.4-2.4,2.9-3.7c0.5-1.4,0.8-2.8,0.8-4.4c0-1.7-0.3-3.4-1-5.1c-0.7-1.7-2.3-3.2-4.8-4.6
		c-2.5-1.4-6.1-2.5-10.8-3.3c-4.7-0.8-11.1-1.3-19.1-1.3c-8.2,0-14.5,0.6-19,1.9c-4.5,1.2-7.8,2.7-10,4.4c-2.1,1.7-3.5,3.4-4.2,5
		c-0.6,1.6-1,2.9-1.1,3.8h-44.5v-2.2c0-2,0.3-4.4,0.8-7.5c0.5-3,1.7-6.2,3.4-9.4c1.7-3.3,4.2-6.5,7.4-9.8c3.2-3.3,7.4-6.2,12.7-8.8
		c5.3-2.6,11.7-4.7,19.4-6.4C275,0.8,284.1,0,294.6,0h11.6c15.7,0,28.4,1.2,38.2,3.5s17.4,5.4,22.8,9c5.4,3.7,9,7.7,10.9,12.2
		c1.9,4.5,2.8,8.7,2.8,12.8v1.4c0,3.9-0.7,7.4-2,10.3c-1.3,3-3.1,5.5-5.2,7.8c-2.2,2.2-4.6,4.1-7.4,5.5c-2.8,1.4-5.6,2.6-8.5,3.5
		c3.3,0.8,6.7,2,10,3.7c3.3,1.7,6.3,3.9,9,6.7c2.6,2.7,4.8,6,6.5,9.8c1.7,3.8,2.5,8.2,2.5,13.1v1.4c0,5.5-1.1,11.1-3.2,17
		c-2.2,5.8-6.1,11.1-12,15.9c-5.8,4.8-13.9,8.7-24.2,11.8c-10.3,3.1-23.7,4.6-40.1,4.6H297.6z"/>
</g>
</svg>
