<?xml version="1.0" encoding="utf-8"?>
<!-- Generator: Adobe Illustrator 25.1.0, SVG Export Plug-In . SVG Version: 6.00 Build 0)  -->
<svg version="1.1" id="Слой_1" xmlns="http://www.w3.org/2000/svg" xmlns:xlink="http://www.w3.org/1999/xlink" x="0px" y="0px"
	 viewBox="0 0 384.7 150" style="enable-background:new 0 0 384.7 150;" xml:space="preserve">
<style type="text/css">
	.st0{fill-rule:evenodd;clip-rule:evenodd;fill:#10253D;}
	.st1{fill-rule:evenodd;clip-rule:evenodd;fill:url(#SVGID_1_);}
	.st2{fill-rule:evenodd;clip-rule:evenodd;fill:url(#SVGID_2_);}
	.st3{fill:#10253D;}
</style>
<g>
	<g>
		<path class="st0" d="M165.8,36.7V0H13.6C6.1,0,0,6.1,0,13.6v23.1H165.8z"/>
		<path class="st0" d="M0,112.5V150h153.8c7.5,0,13.6-6.1,13.6-13.6v-23.9H0z"/>
		<path class="st0" d="M0,55.4h163.6v36.5H0V55.4z"/>
	</g>
	
		<linearGradient id="SVGID_1_" gradientUnits="userSpaceOnUse" x1="-631.1562" y1="347.554" x2="-621.3068" y2="347.554" gradientTransform="matrix(5.6579 0 0 -2.0863 3571.0078 827.3011)">
		<stop  offset="0" style="stop-color:#10253D"/>
		<stop  offset="1" style="stop-color:#FFFFFF;stop-opacity:0"/>
	</linearGradient>
	<path class="st1" d="M0,91.9l55.7,20.6V91.9H0z"/>
	
		<linearGradient id="SVGID_2_" gradientUnits="userSpaceOnUse" x1="-631.1562" y1="348.3603" x2="-621.3068" y2="348.3603" gradientTransform="matrix(5.6579 0 0 -1.903 3571.0078 708.9995)">
		<stop  offset="0" style="stop-color:#10253D"/>
		<stop  offset="1" style="stop-color:#FFFFFF;stop-opacity:0"/>
	</linearGradient>
	<path class="st2" d="M0,36.7l55.7,18.8V36.7H0z"/>
	<g>
		<path class="st3" d="M221.6,150v-21.5c0-5.3,0.5-10.5,1.4-15.5s3.4-10,7.5-14.8c4.1-4.8,10.3-9.6,18.6-14.2
			c8.3-4.6,19.8-9.2,34.6-13.5l25.1-7.2c5.2-1.5,9.5-2.8,12.9-4.1c3.4-1.3,6.1-2.6,8.1-3.9c2-1.3,3.4-2.7,4.2-4.2
			c0.8-1.5,1.2-3.1,1.2-5c0-2-0.4-3.9-1.3-5.6c-0.8-1.7-2.4-3.3-4.7-4.6c-2.3-1.3-5.5-2.4-9.6-3.1c-4.1-0.7-9.4-1.1-15.8-1.1
			c-7.6,0-13.6,0.9-18.1,2.7c-4.5,1.8-7.9,3.9-10.2,6.4c-2.3,2.5-3.8,5.1-4.4,7.8c-0.6,2.7-1,4.9-1.2,6.7h-45.4v-1.4
			c0-3.3,0.3-7,1.1-11c0.7-4,2-8,4-12c2-4,4.7-7.8,8.1-11.6c3.4-3.7,7.9-7,13.4-9.9s12.1-5.1,19.8-6.9c7.7-1.7,16.9-2.6,27.4-2.6
			h9.5c14.1,0,25.8,1.2,35.1,3.6c9.4,2.4,16.9,5.7,22.6,9.9c5.7,4.2,9.7,9,12.1,14.5c2.4,5.5,3.6,11.5,3.6,17.8v1.6
			c0,6.4-1,11.9-3.1,16.6c-2,4.7-5.4,8.9-10,12.4c-4.6,3.6-10.7,6.7-18.1,9.4c-7.5,2.7-16.7,5.2-27.6,7.6c-4.2,0.9-8.5,1.9-13,2.8
			c-4.4,0.9-8.5,1.9-12.1,2.8c-7.7,1.9-14,3.6-18.8,5.1s-8.5,3-11.1,4.3c-2.6,1.3-4.4,2.5-5.3,3.5c-0.9,1-1.4,1.9-1.4,2.7h124.1V150
			H221.6z"/>
	</g>
</g>
</svg>
