<?xml version="1.0" encoding="utf-8"?>
<!-- Generator: Adobe Illustrator 25.1.0, SVG Export Plug-In . SVG Version: 6.00 Build 0)  -->
<svg version="1.1" id="Слой_1" xmlns="http://www.w3.org/2000/svg" xmlns:xlink="http://www.w3.org/1999/xlink" x="0px" y="0px"
	 viewBox="0 0 400.3 150" style="enable-background:new 0 0 400.3 150;" xml:space="preserve">
<style type="text/css">
	.st0{fill-rule:evenodd;clip-rule:evenodd;fill:#10253D;}
	.st1{fill-rule:evenodd;clip-rule:evenodd;fill:url(#SVGID_1_);}
	.st2{fill-rule:evenodd;clip-rule:evenodd;fill:url(#SVGID_2_);}
	.st3{fill:#10253D;}
</style>
<g>
	<g>
		<g>
			<g>
				<g>
					<path class="st0" d="M165.8,36.7V0H13.6C6.1,0,0,6.1,0,13.6v23.1H165.8z"/>
					<path class="st0" d="M0,112.5V150h153.8c7.5,0,13.6-6.1,13.6-13.6v-23.9H0z"/>
					<path class="st0" d="M0,55.4h163.6v36.5H0V55.4z"/>
				</g>
				
					<linearGradient id="SVGID_1_" gradientUnits="userSpaceOnUse" x1="-631.1562" y1="347.554" x2="-621.3068" y2="347.554" gradientTransform="matrix(5.6579 0 0 -2.0863 3571.0078 827.3011)">
					<stop  offset="0" style="stop-color:#10253D"/>
					<stop  offset="1" style="stop-color:#FFFFFF;stop-opacity:0"/>
				</linearGradient>
				<path class="st1" d="M0,91.9l55.7,20.6V91.9H0z"/>
				
					<linearGradient id="SVGID_2_" gradientUnits="userSpaceOnUse" x1="-631.1562" y1="348.3603" x2="-621.3068" y2="348.3603" gradientTransform="matrix(5.6579 0 0 -1.903 3571.0078 708.9995)">
					<stop  offset="0" style="stop-color:#10253D"/>
					<stop  offset="1" style="stop-color:#FFFFFF;stop-opacity:0"/>
				</linearGradient>
				<path class="st2" d="M0,36.7l55.7,18.8V36.7H0z"/>
			</g>
		</g>
	</g>
	<path class="st3" d="M221.6,91.3L308.5,0h58.1v85.5h33.7v32h-33.7V150H323v-32.4H221.6V91.3z M323,28l-54.4,57.5H323V28z"/>
</g>
</svg>
